<svg width="118" height="41" viewBox="0 0 118 41" fill="none" xmlns="http://www.w3.org/2000/svg">
<rect x="1.45996" y="1.46384" width="35.0568" height="7.01135" rx="3.50568" fill="#06283D"/>
<rect x="1.45996" y="29.5092" width="35.0568" height="7.01135" rx="3.50568" fill="#06283D"/>
<rect x="0.0249023" y="33.0173" width="46.6935" height="7.01135" rx="3.50568" transform="rotate(-45 0.0249023 33.0173)" fill="#1363DF"/>
<rect x="4.95776" y="0.00387573" width="46.6928" height="7.01135" rx="3.50568" transform="rotate(45 4.95776 0.00387573)" fill="#1363DF"/>
<rect x="1.45996" y="15.4865" width="35.0568" height="7.01135" rx="3.50568" fill="#06283D"/>
<path d="M48.032 33.34C45.2507 33.34 43.076 32.5653 41.508 31.016C39.94 29.4666 39.156 27.2546 39.156 24.38V13.404H43.692V24.212C43.692 26.0786 44.0747 27.4226 44.84 28.244C45.6053 29.0653 46.6787 29.476 48.06 29.476C49.4413 29.476 50.5147 29.0653 51.28 28.244C52.0453 27.4226 52.428 26.0786 52.428 24.212V13.404H56.908V24.38C56.908 27.2546 56.124 29.4666 54.556 31.016C52.988 32.5653 50.8133 33.34 48.032 33.34ZM70.7704 33.34C69.2584 33.34 67.8491 33.0973 66.5424 32.612C65.2544 32.108 64.1344 31.3986 63.1824 30.484C62.2304 29.5693 61.4837 28.496 60.9424 27.264C60.4197 26.032 60.1584 24.6786 60.1584 23.204C60.1584 21.7293 60.4197 20.376 60.9424 19.144C61.4837 17.912 62.2304 16.8386 63.1824 15.924C64.1531 15.0093 65.2824 14.3093 66.5704 13.824C67.8584 13.32 69.2677 13.068 70.7984 13.068C72.4971 13.068 74.0277 13.3666 75.3904 13.964C76.7717 14.5426 77.9291 15.4013 78.8624 16.54L75.9504 19.228C75.2784 18.4626 74.5317 17.8933 73.7104 17.52C72.8891 17.128 71.9931 16.932 71.0224 16.932C70.1077 16.932 69.2677 17.0813 68.5024 17.38C67.7371 17.6786 67.0744 18.108 66.5144 18.668C65.9544 19.228 65.5157 19.8906 65.1984 20.656C64.8997 21.4213 64.7504 22.2706 64.7504 23.204C64.7504 24.1373 64.8997 24.9866 65.1984 25.752C65.5157 26.5173 65.9544 27.18 66.5144 27.74C67.0744 28.3 67.7371 28.7293 68.5024 29.028C69.2677 29.3266 70.1077 29.476 71.0224 29.476C71.9931 29.476 72.8891 29.2893 73.7104 28.916C74.5317 28.524 75.2784 27.936 75.9504 27.152L78.8624 29.84C77.9291 30.9786 76.7717 31.8466 75.3904 32.444C74.0277 33.0413 72.4877 33.34 70.7704 33.34ZM88.2562 33.34C86.6882 33.34 85.1855 33.1346 83.7482 32.724C82.3109 32.2946 81.1535 31.744 80.2762 31.072L81.8162 27.656C82.6562 28.2533 83.6455 28.748 84.7842 29.14C85.9415 29.5133 87.1082 29.7 88.2842 29.7C89.1802 29.7 89.8989 29.616 90.4402 29.448C91.0002 29.2613 91.4109 29.0093 91.6722 28.692C91.9335 28.3746 92.0642 28.0106 92.0642 27.6C92.0642 27.0773 91.8589 26.6666 91.4482 26.368C91.0375 26.0506 90.4962 25.7986 89.8242 25.612C89.1522 25.4066 88.4055 25.22 87.5842 25.052C86.7815 24.8653 85.9695 24.6413 85.1482 24.38C84.3455 24.1186 83.6082 23.7826 82.9362 23.372C82.2642 22.9613 81.7135 22.42 81.2842 21.748C80.8735 21.076 80.6682 20.2173 80.6682 19.172C80.6682 18.052 80.9669 17.0346 81.5642 16.12C82.1802 15.1866 83.0949 14.4493 84.3082 13.908C85.5402 13.348 87.0802 13.068 88.9282 13.068C90.1602 13.068 91.3735 13.2173 92.5682 13.516C93.7629 13.796 94.8175 14.2253 95.7322 14.804L94.3322 18.248C93.4175 17.7253 92.5029 17.3426 91.5882 17.1C90.6735 16.8386 89.7775 16.708 88.9002 16.708C88.0229 16.708 87.3042 16.8106 86.7442 17.016C86.1842 17.2213 85.7829 17.492 85.5402 17.828C85.2975 18.1453 85.1762 18.5186 85.1762 18.948C85.1762 19.452 85.3815 19.8626 85.7922 20.18C86.2029 20.4786 86.7442 20.7213 87.4162 20.908C88.0882 21.0946 88.8255 21.2813 89.6282 21.468C90.4495 21.6546 91.2615 21.8693 92.0642 22.112C92.8855 22.3546 93.6322 22.6813 94.3042 23.092C94.9762 23.5026 95.5175 24.044 95.9282 24.716C96.3575 25.388 96.5722 26.2373 96.5722 27.264C96.5722 28.3653 96.2642 29.3733 95.6482 30.288C95.0322 31.2026 94.1082 31.94 92.8762 32.5C91.6629 33.06 90.1229 33.34 88.2562 33.34ZM109.052 33.34C107.54 33.34 106.13 33.0973 104.824 32.612C103.536 32.108 102.416 31.3986 101.464 30.484C100.512 29.5693 99.765 28.496 99.2237 27.264C98.701 26.032 98.4397 24.6786 98.4397 23.204C98.4397 21.7293 98.701 20.376 99.2237 19.144C99.765 17.912 100.512 16.8386 101.464 15.924C102.434 15.0093 103.564 14.3093 104.852 13.824C106.14 13.32 107.549 13.068 109.08 13.068C110.778 13.068 112.309 13.3666 113.672 13.964C115.053 14.5426 116.21 15.4013 117.144 16.54L114.232 19.228C113.56 18.4626 112.813 17.8933 111.992 17.52C111.17 17.128 110.274 16.932 109.304 16.932C108.389 16.932 107.549 17.0813 106.784 17.38C106.018 17.6786 105.356 18.108 104.796 18.668C104.236 19.228 103.797 19.8906 103.48 20.656C103.181 21.4213 103.032 22.2706 103.032 23.204C103.032 24.1373 103.181 24.9866 103.48 25.752C103.797 26.5173 104.236 27.18 104.796 27.74C105.356 28.3 106.018 28.7293 106.784 29.028C107.549 29.3266 108.389 29.476 109.304 29.476C110.274 29.476 111.17 29.2893 111.992 28.916C112.813 28.524 113.56 27.936 114.232 27.152L117.144 29.84C116.21 30.9786 115.053 31.8466 113.672 32.444C112.309 33.0413 110.769 33.34 109.052 33.34Z" fill="#06283D"/>
</svg>
